<svg xmlns="http://www.w3.org/2000/svg" xmlns:xlink="http://www.w3.org/1999/xlink" version="1.1" x="0px" y="0px" viewBox="0 0 100 125" style="enable-background:new 0 0 100 100;" xml:space="preserve"><style type="text/css">
	.st0{fill:none;stroke:#000000;stroke-width:3;stroke-miterlimit:10;}
	.st1{fill:none;stroke:#000000;stroke-width:3;stroke-linecap:round;stroke-linejoin:round;stroke-miterlimit:10;}
	.st2{fill:none;stroke:#000000;stroke-width:3;stroke-linejoin:round;stroke-miterlimit:10;}
	.st3{display:none;}
</style><g><path d="M16.4,54.8L16,55.1v16.8l0.4,0.3c1.1,0.8,2.2,1.5,3.2,1.9l1.4,0.6V52.3l-1.4,0.6C18.6,53.4,17.5,54,16.4,54.8z"/><path d="M20.2,45.5l0.8-0.2V33.1c0-4.1,3.1-7.1,7.2-7.1h43.5c4.1,0,7.2,3.1,7.2,7.1v41.6l1.4-0.6c1-0.5,2.1-1.1,3.2-1.9l0.4-0.3   V33.1C84,26.3,78.6,21,71.8,21H28.2C21.4,21,16,26.3,16,33.1v13.7l1.3-0.5C18.4,45.9,19.3,45.7,20.2,45.5z"/><path d="M48.7,55H43v25h3V58h2.7c2.8,0,5.2,2.2,5.2,5S51,68,49,68v3c4,0,7.8-3.6,7.8-8S53.1,55,48.7,55z"/><path d="M86,50.2v3.9c2.4,2.4,3.9,5.7,3.9,9.4c0,7.4-6,13.4-13.4,13.4s-13.4-6-13.4-13.4c0-1.6,0.3-3.1,0.8-4.5l12,5.8   C76,65,76.2,65,76.5,65c0.6,0,1.1-0.3,1.3-0.8c0.4-0.7,0.1-1.6-0.7-2l-12-5.8c2.4-3.7,6.6-6.2,11.3-6.2c0.2,0,0.4,0,0.5,0v-3   c-0.2,0-0.4,0-0.5,0c-5.9,0-11.1,3.2-14,7.9l-2.7-1.3L66.4,36H68c0.8,0,1.5-0.7,1.5-1.5S68.8,33,68,33H58c-0.8,0-1.5,0.7-1.5,1.5   S57.2,36,58,36h5.2L57,52.4L33.6,40.9l1.9-4.9H44c0.8,0,1.5-0.7,1.5-1.5S44.8,33,44,33h-9.6c-0.6,0-1.2,0.4-1.4,1l-5.2,13.7   c-1.4-0.4-2.8-0.6-4.3-0.6c-9,0-16.4,7.4-16.4,16.4s7.4,16.4,16.4,16.4s16.4-7.4,16.4-16.4c0-6.5-3.8-12.1-9.3-14.8l1.9-5l28.6,14   c-0.7,1.8-1.1,3.8-1.1,5.8c0,9,7.4,16.4,16.4,16.4s16.4-7.4,16.4-16.4C92.9,58,90.2,53.2,86,50.2z M36.9,63.5   c0,7.4-6,13.4-13.4,13.4s-13.4-6-13.4-13.4s6-13.4,13.4-13.4c1.1,0,2.2,0.1,3.2,0.4l-4.5,12c-0.3,0.8,0.1,1.6,0.9,1.9   c0.2,0.1,0.4,0.1,0.5,0.1c0.6,0,1.2-0.4,1.4-1l4.6-12.1C33.9,53.8,36.9,58.3,36.9,63.5z"/></g><text x="0" y="115" fill="#000000" font-size="5px" font-weight="bold" font-family="'Helvetica Neue', Helvetica, Arial-Unicode, Arial, Sans-serif">Created by Eliricon</text><text x="0" y="120" fill="#000000" font-size="5px" font-weight="bold" font-family="'Helvetica Neue', Helvetica, Arial-Unicode, Arial, Sans-serif">from the Noun Project</text></svg>